<svg width="256" height="256" viewBox="0 0 256 256" fill="none" xmlns="http://www.w3.org/2000/svg">
  <rect width="256" height="256" rx="64" fill="#0B1120"/>
  <path d="M128 32C128 32 184 80 184 152C184 200 128 224 128 224C128 224 168 184 168 144C168 96 128 32 128 32Z" fill="#3B82F6" stroke="#60A5FA" stroke-width="4" stroke-linejoin="round"/>
  <path d="M128 32C128 32 72 80 72 152C72 200 128 224 128 224C128 224 88 184 88 144C88 96 128 32 128 32Z" fill="#EAB308" stroke="#FDE047" stroke-width="4" stroke-linejoin="round"/>
  <circle cx="128" cy="192" r="8" fill="#FFFFFF"/>
  <circle cx="104" cy="120" r="6" fill="#FFFFFF" fill-opacity="0.8"/>
  <circle cx="152" cy="120" r="6" fill="#FFFFFF" fill-opacity="0.8"/>
  <path d="M128 192L104 120M128 192L152 120" stroke="#FFFFFF" stroke-width="2" stroke-opacity="0.5" stroke-dasharray="4 4"/>
  <circle cx="128" cy="128" r="48" fill="#3B82F6" fill-opacity="0.2" filter="blur(16px)"/>
</svg>
